<?xml version="1.0" encoding="UTF-8" standalone="no"?>
<!-- Created with Inkscape (http://www.inkscape.org/) -->

<svg
   width="512"
   height="512"
   viewBox="0 0 512 512"
   version="1.1"
   id="svg1"
   xmlns="http://www.w3.org/2000/svg"
   xmlns:svg="http://www.w3.org/2000/svg">
  <defs
     id="defs1" />
  <g
     id="layer1"
     transform="translate(-1566)">
    <path
       style="fill:none;stroke:#7fff00;stroke-width:15;stroke-linecap:round;stroke-linejoin:round;stroke-miterlimit:1.7;stroke-dasharray:none;stroke-opacity:1"
       d="m 1873.2911,101.02852 -85.5494,302.19884"
       id="path21" />
    <rect
       style="fill:#e6e6fa;stroke:#000000;stroke-width:6;stroke-linecap:butt;stroke-linejoin:round;stroke-miterlimit:1.7;stroke-dasharray:none"
       id="path20"
       width="340.95703"
       height="323.867"
       x="1702.8126"
       y="-222.83849"
       ry="5.5001001"
       d="m 613.02158,93.904465 h 329.95684 c 3.04705,0 5.5001,2.453044 5.5001,5.5001 V 412.27137 c 0,3.04705 -2.45305,5.5001 -5.5001,5.5001 H 613.02158 c -3.04705,0 -5.5001,-2.45305 -5.5001,-5.5001 V 99.404565 c 0,-3.047056 2.45305,-5.5001 5.5001,-5.5001 z" />
    <rect
       style="fill:#e6e6fa;stroke:#000000;stroke-width:6;stroke-linecap:butt;stroke-linejoin:round;stroke-miterlimit:1.7;stroke-dasharray:none"
       id="rect20"
       width="340.95703"
       height="323.867"
       x="1617.2632"
       y="403.22736"
       ry="5.5001001"
       d="m 613.02158,93.904465 h 329.95684 c 3.04705,0 5.5001,2.453044 5.5001,5.5001 V 412.27137 c 0,3.04705 -2.45305,5.5001 -5.5001,5.5001 H 613.02158 c -3.04705,0 -5.5001,-2.45305 -5.5001,-5.5001 V 99.404565 c 0,-3.047056 2.45305,-5.5001 5.5001,-5.5001 z" />
    <g
       id="g23"
       transform="matrix(0.65081345,0,0,0.65081345,1309.1572,-23.047155)">
      <path
         style="fill:none;stroke:#000000;stroke-width:19.509;stroke-linecap:round;stroke-linejoin:round;stroke-miterlimit:1.7;stroke-dasharray:none"
         d="M 948.47897,345.86084 V 489.68262"
         id="path22" />
      <path
         style="fill:none;stroke:#000000;stroke-width:19.509;stroke-linecap:round;stroke-linejoin:round;stroke-miterlimit:1.7;stroke-dasharray:none"
         d="M 876.56808,417.77171 H 1020.3899"
         id="path23" />
    </g>
    <path
       style="fill:none;stroke:#000000;stroke-width:7;stroke-linecap:butt;stroke-linejoin:round;stroke-miterlimit:1.7;stroke-dasharray:none;stroke-opacity:1"
       d="m 1617.7171,476.33457 h 343.5031"
       id="path26" />
  </g>
</svg>
