<?xml version="1.0" encoding="UTF-8" standalone="no"?>
<!-- Created with Inkscape (http://www.inkscape.org/) -->

<svg
   width="512"
   height="512"
   viewBox="0 0 512 512"
   version="1.1"
   id="svg1"
   xmlns="http://www.w3.org/2000/svg"
   xmlns:svg="http://www.w3.org/2000/svg">
  <defs
     id="defs1" />
  <g
     id="layer1">
    <path
       style="fill:none;stroke:#000000;stroke-width:19.509;stroke-linecap:round;stroke-linejoin:round;stroke-miterlimit:1.7;stroke-dasharray:none"
       d="M 426.47897,345.86084 V 489.68262"
       id="path3" />
    <path
       style="fill:none;stroke:#000000;stroke-width:19.509;stroke-linecap:round;stroke-linejoin:round;stroke-miterlimit:1.7;stroke-dasharray:none"
       d="M 354.56808,417.77171 H 498.38986"
       id="path4" />
    <path
       id="path5"
       style="baseline-shift:baseline;display:inline;overflow:visible;opacity:1;vector-effect:none;fill:#e6e6fa;stroke-linecap:round;stroke-linejoin:round;stroke-miterlimit:1.7;enable-background:accumulate;stop-color:#000000;stop-opacity:1"
       d="m 91.021484,94.228515 c -3.047056,0 -5.5,2.45295 -5.5,5.5 V 412.27149 c 0,3.04705 2.452944,5.5 5.5,5.5 H 341.44974 c 1.4e-4,-44.77707 40.2517,-83.99758 85.02877,-83.99772 V 99.728515 c 0,-3.04705 -2.45294,-5.5 -5.5,-5.5 z" />
    <path
       id="path6"
       style="baseline-shift:baseline;display:inline;overflow:visible;opacity:1;vector-effect:none;stroke-linecap:round;stroke-linejoin:round;stroke-miterlimit:1.7;enable-background:accumulate;stop-color:#000000;stop-opacity:1"
       d="m 91.021484,91.222655 c -4.659583,0 -8.505859,3.84629 -8.505859,8.50586 V 412.27149 c 0,4.65958 3.846276,8.50391 8.505859,8.50391 H 341.50634 c -0.0374,-1.00087 -0.0563,-2.00234 -0.0566,-3.00391 3.2e-4,-1.00157 0.0192,-2.00304 0.0566,-3.00391 H 91.021484 c -1.434529,0 -2.496093,-1.06158 -2.496093,-2.49609 V 99.728515 c 0,-1.43452 1.061564,-2.49609 2.496093,-2.49609 H 420.97851 c 1.43454,0 2.4961,1.06157 2.4961,2.49609 V 333.82847 c 1.00088,-0.0368 2.00235,-0.055 3.0039,-0.0547 1.00156,-3.2e-4 2.00303,0.0179 3.00391,0.0547 V 99.728515 c 0,-4.65957 -3.84432,-8.50586 -8.50391,-8.50586 z" />
    <path
       style="fill:none;stroke:#000000;stroke-width:7.609;stroke-linecap:butt;stroke-linejoin:round;stroke-miterlimit:1.7;stroke-dasharray:none"
       d="M 85.521484,159.02205 H 426.47851"
       id="path7" />
  </g>
</svg>
