<?xml version="1.0" encoding="UTF-8" standalone="no"?>
<!-- Created with Inkscape (http://www.inkscape.org/) -->

<svg
   width="512"
   height="512"
   viewBox="0 0 512 512"
   version="1.1"
   id="svg1"
   xmlns="http://www.w3.org/2000/svg"
   xmlns:svg="http://www.w3.org/2000/svg">
  <defs
     id="defs1">
    <clipPath
       clipPathUnits="userSpaceOnUse"
       id="clipPath15">
      <circle
         style="display:none;fill:#ffffff;stroke:none;stroke-width:6;stroke-linecap:butt;stroke-linejoin:round;stroke-miterlimit:1.7;stroke-dasharray:none"
         id="circle15"
         cx="948.47852"
         cy="284.6076"
         r="58.74432" />
      <path
         id="lpe_path-effect15"
         style="fill:#ffffff;stroke:none;stroke-width:6;stroke-linecap:butt;stroke-linejoin:round;stroke-miterlimit:1.7;stroke-dasharray:none"
         class="powerclip"
         d="M 599.52148,85.904465 H 956.47852 V 425.77147 H 599.52148 Z M 1007.2228,284.6076 a 58.74432,58.74432 0 0 0 -58.74428,-58.74431 58.74432,58.74432 0 0 0 -58.74432,58.74431 58.74432,58.74432 0 0 0 58.74432,58.74432 58.74432,58.74432 0 0 0 58.74428,-58.74432 z" />
    </clipPath>
  </defs>
  <g
     id="layer1"
     transform="translate(-522)">
    <g
       id="g15"
       clip-path="url(#clipPath15)"
       transform="translate(0,0.16203308)">
      <path
         style="fill:#e6e6fa;stroke:#000000;stroke-width:6;stroke-linecap:butt;stroke-linejoin:round;stroke-miterlimit:1.7;stroke-dasharray:none"
         id="rect14"
         width="340.95703"
         height="323.867"
         x="607.52148"
         y="93.904465"
         ry="5.5001001"
         d="m 613.02158,93.904465 h 329.95684 c 3.04705,0 5.5001,2.453044 5.5001,5.5001 V 412.27137 c 0,3.04705 -2.45305,5.5001 -5.5001,5.5001 H 613.02158 c -3.04705,0 -5.5001,-2.45305 -5.5001,-5.5001 V 99.404565 c 0,-3.047056 2.45305,-5.5001 5.5001,-5.5001 z" />
      <path
         style="fill:none;stroke:#000000;stroke-width:7;stroke-linecap:butt;stroke-linejoin:round;stroke-miterlimit:1.7;stroke-dasharray:none"
         d="M 607.52149,159.02205 H 948.47851"
         id="path13"
         transform="translate(9.75e-4,9.725e-4)" />
      <path
         style="fill:#7fff00;stroke:#000000;stroke-width:6;stroke-linecap:butt;stroke-linejoin:round;stroke-miterlimit:1.7;stroke-dasharray:none"
         id="rect15"
         width="340.95605"
         height="96.997475"
         x="607.52246"
         y="236.10887"
         ry="0"
         d="m 607.52246,236.10887 h 340.95606 v 96.99748 H 607.52246 Z" />
    </g>
    <g
       id="g14"
       transform="matrix(0.65081345,0,0,0.65081345,331.19563,12.716165)">
      <path
         style="fill:none;stroke:#000000;stroke-width:19.509;stroke-linecap:round;stroke-linejoin:round;stroke-miterlimit:1.7;stroke-dasharray:none"
         d="M 948.47897,345.86084 V 489.68262"
         id="path8" />
      <path
         style="fill:none;stroke:#000000;stroke-width:19.509;stroke-linecap:round;stroke-linejoin:round;stroke-miterlimit:1.7;stroke-dasharray:none"
         d="M 876.56808,417.77171 H 1020.3899"
         id="path9" />
    </g>
  </g>
</svg>
