<?xml version="1.0" encoding="UTF-8" standalone="no"?>
<!-- Created with Inkscape (http://www.inkscape.org/) -->

<svg
   width="512"
   height="512"
   viewBox="0 0 512 512"
   version="1.1"
   id="svg1"
   xmlns="http://www.w3.org/2000/svg"
   xmlns:svg="http://www.w3.org/2000/svg">
  <defs
     id="defs1" />
  <g
     id="layer1"
     transform="translate(-2610)">
    <rect
       style="fill:#7fff00;fill-opacity:1;stroke:#000000;stroke-width:6;stroke-linecap:butt;stroke-linejoin:round;stroke-miterlimit:1.7;stroke-dasharray:none"
       id="rect28"
       width="243.80211"
       height="231.58203"
       x="2835.6731"
       y="63.69886"
       ry="5.5001001"
       d="m 613.02158,93.904465 h 329.95684 c 3.04705,0 5.5001,2.453044 5.5001,5.5001 V 412.27137 c 0,3.04705 -2.45305,5.5001 -5.5001,5.5001 H 613.02158 c -3.04705,0 -5.5001,-2.45305 -5.5001,-5.5001 V 99.404565 c 0,-3.047056 2.45305,-5.5001 5.5001,-5.5001 z" />
    <rect
       style="fill:#e6e6fa;stroke:#000000;stroke-width:6;stroke-linecap:butt;stroke-linejoin:round;stroke-miterlimit:1.7;stroke-dasharray:none"
       id="rect27"
       width="243.80211"
       height="231.58203"
       x="2673.4431"
       y="221.58841"
       ry="5.5001001"
       d="m 613.02158,93.904465 h 329.95684 c 3.04705,0 5.5001,2.453044 5.5001,5.5001 V 412.27137 c 0,3.04705 -2.45305,5.5001 -5.5001,5.5001 H 613.02158 c -3.04705,0 -5.5001,-2.45305 -5.5001,-5.5001 V 99.404565 c 0,-3.047056 2.45305,-5.5001 5.5001,-5.5001 z" />
  </g>
</svg>
