<?xml version="1.0" encoding="UTF-8" standalone="no"?>
<!-- Created with Inkscape (http://www.inkscape.org/) -->

<svg
   width="512"
   height="512"
   viewBox="0 0 512 512"
   version="1.1"
   id="svg1"
   sodipodi:docname="icon.svg"
   inkscape:version="1.4.2 (ebf0e94, 2025-05-08)"
   inkscape:export-filename="icon.png"
   inkscape:export-xdpi="743.09"
   inkscape:export-ydpi="743.09"
   xmlns:inkscape="http://www.inkscape.org/namespaces/inkscape"
   xmlns:sodipodi="http://sodipodi.sourceforge.net/DTD/sodipodi-0.dtd"
   xmlns="http://www.w3.org/2000/svg"
   xmlns:svg="http://www.w3.org/2000/svg">
  <sodipodi:namedview
     id="namedview1"
     pagecolor="#ffffff"
     bordercolor="#999999"
     borderopacity="1"
     inkscape:showpageshadow="0"
     inkscape:pageopacity="0"
     inkscape:pagecheckerboard="0"
     inkscape:deskcolor="#d1d1d1"
     inkscape:document-units="px"
     inkscape:zoom="1.5429688"
     inkscape:cx="188.92151"
     inkscape:cy="258.5924"
     inkscape:window-width="1920"
     inkscape:window-height="992"
     inkscape:window-x="0"
     inkscape:window-y="0"
     inkscape:window-maximized="1"
     inkscape:current-layer="layer1"
     showgrid="false" />
  <defs
     id="defs1">
    <rect
       x="46.744234"
       y="54.076662"
       width="194.30936"
       height="149.39823"
       id="rect3" />
    <rect
       x="46.744234"
       y="54.076662"
       width="202.76346"
       height="122.52626"
       id="rect4" />
    <rect
       x="46.744234"
       y="54.076662"
       width="194.30936"
       height="149.39823"
       id="rect5" />
    <rect
       x="46.744234"
       y="54.076662"
       width="202.76346"
       height="122.52626"
       id="rect9" />
  </defs>
  <g
     inkscape:label="Layer 1"
     inkscape:groupmode="layer"
     id="layer1">
    <path
       id="text9"
       style="font-size:100px;font-family:Dyuthi;-inkscape-font-specification:Dyuthi;white-space:pre;stroke-width:10.1085;stroke-linecap:round;stroke-linejoin:round;stroke-miterlimit:1.7;stroke:#ffffff;stroke-opacity:1"
       d="m 76.871032,292.38642 c -5.621997,0.0639 -10.812927,3.37499 -13.771578,8.06538 -2.514848,3.62658 -2.887225,8.16075 -2.683617,12.43968 0.02387,32.92143 -0.04773,65.84492 0.03577,98.76505 0.289346,8.07497 7.145315,15.05607 15.069472,16.04821 5.417121,0.89767 11.438144,0.0788 15.620908,-3.74803 4.217996,-3.62215 6.737372,-9.20849 6.150235,-14.79539 -0.553391,-21.22602 -1.106779,-42.45205 -1.660167,-63.67807 14.575765,23.72746 29.060855,47.51204 43.693265,71.20385 4.1164,6.27861 11.06971,10.67645 18.61442,11.18612 7.36538,0.70989 15.47254,-0.86039 20.76266,-6.39139 2.6345,-2.74457 4.16995,-6.32764 5.94284,-9.64954 1.96577,-4.00694 3.28302,-8.41793 2.92211,-12.92267 -0.0231,-30.12737 0.0462,-60.25666 -0.0346,-90.38283 -0.20002,-7.00677 -5.30225,-13.51489 -12.11915,-15.24738 -5.82411,-1.55085 -12.61784,-1.43529 -17.546,2.44582 -4.40565,3.20762 -7.54661,8.43232 -7.21017,14.00099 0.60091,21.99196 1.20183,43.98393 1.80274,65.97591 -17.36356,-25.67153 -34.64711,-51.39975 -52.06066,-77.03587 -3.298226,-4.53042 -9.053281,-6.62942 -14.53153,-6.29661 -2.998882,0.0107 -5.99833,-0.0217 -8.996907,0.0168 z M 418.25872,305.9279 c -4.32284,0.10143 -8.5334,1.99478 -11.32166,5.32637 -3.28272,3.51137 -4.18022,8.49503 -3.89677,13.14621 0,2.1099 0,4.2198 0,6.32969 -3.98595,-0.32207 -8.25178,0.87262 -10.82751,4.09245 -3.52405,4.01046 -3.95237,10.52611 -0.91123,14.92431 2.53539,3.54218 6.97897,5.2484 11.25326,4.89673 1.09594,0.21068 0.18988,2.42337 0.48548,3.43442 0.11043,9.32538 -0.25743,18.66429 0.26453,27.97962 0.86913,11.88629 3.83348,24.23528 11.66722,33.54247 4.61234,5.56641 12.07216,9.09134 19.3387,7.82471 5.63805,-1.14259 8.98425,-6.56361 10.62856,-11.66602 1.6405,-4.55226 2.34363,-10.32481 -1.1165,-14.23648 -2.04664,-2.41844 -5.47958,-3.21563 -7.14598,-6.04188 -4.06442,-5.97977 -3.63527,-13.55479 -3.64405,-20.45671 0,-6.79337 0,-13.58676 0,-20.38013 4.53277,-0.19288 9.56855,0.82862 13.54593,-1.95027 5.97705,-3.71886 6.65462,-13.04339 1.82259,-17.96225 -2.49331,-2.99211 -6.45658,-4.35221 -10.28145,-4.00097 -1.69571,0 -3.39139,0 -5.08707,0 -0.19368,-4.32105 0.50134,-8.74899 -0.62049,-12.97969 -1.47425,-4.53024 -4.53352,-8.75248 -8.77471,-11.03441 -1.66562,-0.86406 -3.54985,-0.90233 -5.37885,-0.78817 z m -106.54163,20.94107 c -5.27428,0.0553 -10.28145,3.22969 -12.57397,7.98078 -2.79637,4.85015 -2.98204,11.15184 0.0147,15.9576 4.29871,6.38959 8.99036,12.51554 13.44144,18.80281 2.13333,2.95439 4.26668,5.90877 6.40004,8.86314 -6.51995,8.27886 -13.21144,16.4305 -19.6243,24.78883 -3.21721,4.53077 -3.18508,10.72753 -0.63032,15.54997 2.13076,4.93108 7.00707,8.5501 12.41869,8.81028 5.43147,0.61566 11.19945,-1.51595 14.44124,-6.02211 4.86822,-7.2161 9.48172,-14.60849 14.2519,-21.89243 4.89035,7.39139 9.57381,14.92717 14.59377,22.22815 3.10778,4.10456 8.36008,6.14091 13.43152,5.7469 5.41441,0.0201 10.58585,-3.20573 12.96998,-8.06325 2.75818,-4.72157 2.90249,-10.902 -0.10999,-15.5439 -3.20949,-4.66592 -6.97977,-8.92799 -10.41496,-13.43094 -3.21136,-4.05717 -6.42271,-8.11433 -9.63406,-12.1715 6.49867,-9.11774 13.12879,-18.14732 19.54592,-27.31976 3.14258,-4.73952 3.42972,-11.0956 0.74349,-16.10519 -2.19425,-4.8318 -7.24489,-7.96846 -12.50423,-8.14057 -5.28083,-0.54274 -10.92534,1.34833 -14.16818,5.69788 -4.96894,7.26794 -9.61318,14.7627 -14.45745,22.11766 -4.7548,-7.29164 -9.34933,-14.69393 -14.20401,-21.91664 -3.21496,-4.36825 -8.6322,-6.30122 -13.93123,-5.93771 z m -70.68398,0.31443 c -11.10531,0.22656 -21.94028,4.76716 -30.09138,12.27395 -9.23019,8.15533 -15.44446,19.74388 -16.58215,32.05618 -1.28926,11.63666 1.27162,23.84138 8.10165,33.46119 5.48032,7.68404 12.85368,14.06491 21.27266,18.33665 6.29137,3.21633 13.42272,4.50589 20.45347,4.16578 12.37637,-0.21785 25.35851,-2.04102 35.80756,-9.16662 3.09133,-2.07379 5.9985,-4.84294 7.06997,-8.49858 1.46405,-4.90229 -0.48389,-10.38833 -3.8394,-14.10784 -2.88448,-3.26672 -7.84694,-3.47911 -11.59827,-1.70863 -7.74481,3.149 -15.14648,7.7034 -23.60902,8.61529 -6.30351,0.78957 -13.16492,-1.25189 -17.35451,-6.16758 -1.79933,-2.45179 -2.91142,-5.3191 -3.94765,-8.15546 18.94093,-0.0307 37.88474,0.0615 56.82387,-0.0461 3.90114,-0.10042 7.6989,-2.69345 8.61653,-6.59235 1.02288,-4.20399 0.39869,-8.60692 -0.0845,-12.84671 -1.48304,-11.10616 -7.17102,-21.52383 -15.65792,-28.83083 -8.71802,-7.89784 -20.27356,-12.53062 -32.04009,-12.77111 -1.11267,-0.0647 -2.22716,-0.0137 -3.34081,-0.0172 z m 5.04346,22.69769 c 4.97414,0.39187 10.07485,1.87457 13.99718,5.05036 3.1212,2.79377 4.94743,6.70508 6.30246,10.5957 -13.55965,0 -27.11928,0 -40.67892,0 1.06001,-4.42308 3.22794,-8.79418 7.11918,-11.37195 1.66965,-1.26766 3.46331,-2.33536 5.20982,-3.04457 2.5345,-1.09092 5.30968,-1.44921 8.05028,-1.22954 z" />
    <path
       id="text3"
       style="font-weight:500;font-size:100px;font-family:'CMU Typewriter Text';-inkscape-font-specification:'CMU Typewriter Text Medium';white-space:pre;stroke-width:9.06854;stroke-linecap:round;stroke-linejoin:round;stroke-miterlimit:1.7;stroke:#ffffff;stroke-opacity:1"
       d="m 113.96189,67.663028 c -3.38672,0.04129 -7.27091,1.570549 -8.32326,5.092493 -1.00189,3.379979 -0.24306,7.844654 3.21196,9.523038 1.99427,1.159943 4.37604,1.00804 6.59692,1.079427 0,30.074794 0,60.149594 0,90.224394 -2.92793,-0.0403 -6.21083,0.0991 -8.36087,2.38827 -2.1539,2.44496 -2.35674,6.28049 -1.04676,9.17474 1.74261,3.53075 6.10706,4.29174 9.67391,4.15451 5.69958,-0.0692 11.40893,0.1409 17.10236,-0.10907 3.32842,-0.20629 6.83845,-2.28606 7.4312,-5.78875 0.69434,-3.1892 -0.32753,-6.929 -3.29778,-8.62369 -1.98421,-1.30454 -4.45252,-1.11646 -6.71728,-1.19601 0,-25.43866 0,-50.87729 0,-76.315944 3.28017,10.283844 6.63945,20.541194 9.92761,30.822054 2.07537,5.83624 3.85117,11.80205 6.39921,17.45508 2.51806,4.79592 9.56212,5.91879 13.62357,2.46126 2.37204,-1.75546 3.36512,-4.58938 4.21896,-7.28672 5.00439,-14.38508 9.57057,-28.91593 14.20933,-43.421585 0,25.428615 0,50.857235 0,76.285855 -2.92914,-0.0407 -6.21352,0.099 -8.36462,2.38827 -2.21736,2.55043 -2.39881,6.58616 -0.86129,9.52305 2.01439,3.45821 6.44697,3.94699 10.0699,3.8062 5.50583,-0.0669 11.02119,0.13757 16.52089,-0.10907 3.32842,-0.20629 6.83845,-2.28606 7.4312,-5.78875 0.69757,-3.18729 -0.32217,-6.92053 -3.2865,-8.61992 -1.98579,-1.30903 -4.45707,-1.12021 -6.7248,-1.19978 0,-30.0748 0,-60.1496 0,-90.224394 2.81924,0.0105 6.03646,-0.01375 8.07879,-2.290494 2.58288,-2.537258 2.78556,-7.001512 0.90147,-9.996841 -2.2758,-3.340806 -6.74465,-3.544453 -10.4057,-3.43019 -4.23479,0.135496 -8.51479,-0.319871 -12.71619,0.338497 -3.2407,0.603682 -6.43055,2.674398 -7.37171,5.983867 -2.63079,6.918732 -4.72378,14.031187 -7.13007,21.03078 -3.44878,10.639615 -7.22418,21.178455 -10.34387,31.921365 -5.57336,-17.97272 -11.53534,-35.824414 -17.50974,-53.664717 -1.74142,-4.078409 -6.47515,-5.621912 -10.59819,-5.59891 -4.11246,-0.01042 -8.22648,-0.03381 -12.33865,0.01168 z m 251.6647,0 c -3.46319,0.04198 -7.42242,1.618456 -8.48876,5.220369 -1.1197,3.405183 -0.003,7.790377 3.46436,9.352854 3.86838,1.818461 8.26351,0.938403 12.38405,1.151825 0.27445,1.112643 0.0387,2.735526 0.11736,4.043904 0,6.752131 0,13.50426 0,20.25639 -7.51818,-5.53158 -17.26829,-7.52195 -26.42982,-6.11744 -11.76603,1.59971 -22.02993,9.27412 -28.45082,19.04415 -7.11175,10.80521 -8.61346,24.6111 -5.79991,37.06568 2.93095,12.584 11.54967,23.94179 23.28042,29.52798 10.99675,5.07025 24.7126,4.26164 34.64601,-2.85157 1.03241,-0.70703 2.02072,-1.47808 2.97601,-2.28606 0.20622,2.56781 1.14527,5.59744 3.90089,6.42144 3.96054,1.33809 8.22224,0.61995 12.32062,0.80735 4.06469,-0.19073 8.26885,0.52128 12.21597,-0.72212 3.26185,-0.9738 5.32093,-4.38296 4.97439,-7.71888 0.0433,-3.3808 -2.63601,-6.30331 -5.90337,-6.90042 -3.43016,-0.73122 -6.96667,-0.28024 -10.44451,-0.4062 -0.0201,-32.42027 0.0401,-64.84193 -0.0301,-97.261349 -0.0331,-3.095708 -1.15858,-6.732847 -4.36285,-7.864405 -3.93865,-1.322701 -8.17015,-0.594193 -12.24304,-0.786065 -2.70884,0.01321 -5.41855,-0.02761 -8.12692,0.02257 z M 253.46385,100.61755 c -9.43257,0.37123 -18.5167,4.55197 -25.21198,11.1563 -7.95789,7.45421 -13.0411,17.85516 -13.95622,28.72735 -1.14951,11.55597 1.42367,23.74825 8.56371,33.07879 6.64182,8.94416 16.81693,15.51974 28.02995,16.61697 10.00749,1.16595 20.49938,-1.4767 28.42413,-7.79013 9.24849,-7.12418 15.70483,-17.86928 17.19003,-29.49301 1.61351,-11.64999 -0.63089,-24.06885 -7.52411,-33.7515 -5.83627,-8.20453 -14.11127,-15.13453 -24.08223,-17.47649 -3.7296,-0.92861 -7.59829,-1.23271 -11.43328,-1.06828 z m 3.29846,15.73256 c 6.33996,0.22199 12.12632,3.7585 16.0944,8.56754 5.42923,5.94881 7.37185,14.32149 6.75711,22.20075 -0.55066,9.80975 -5.47431,19.69983 -13.99794,24.90688 -7.29345,4.33416 -17.2644,3.32507 -23.5326,-2.40195 -7.46717,-6.44687 -11.11932,-16.53123 -10.73399,-26.26852 0.0548,-7.64471 2.99314,-15.36258 8.68604,-20.58068 4.38923,-4.34528 10.52349,-6.85608 16.72698,-6.42402 z m 97.56601,0.56794 c 6.23031,0.11893 11.95384,3.77215 15.40834,8.83894 2.68434,3.63233 3.63707,8.23301 3.36694,12.68267 -0.108,4.88692 0.23693,9.79574 -0.21439,14.66744 -0.95756,6.44758 -4.38488,12.42001 -9.02973,16.92681 -6.49067,6.19208 -17.43365,6.08234 -24.29205,0.55051 -7.45491,-5.71728 -11.28581,-15.23763 -11.17992,-24.49673 -0.16395,-8.13786 2.70683,-16.49011 8.70104,-22.14439 4.5213,-4.53124 10.76153,-7.40881 17.23977,-7.02525 z" />
    <path
       id="path4"
       style="fill:none;fill-opacity:1;stroke:#000000;stroke-width:6.009;stroke-linecap:round;stroke-linejoin:round;stroke-miterlimit:1.7;stroke-dasharray:none;stroke-opacity:1"
       d="m 332.86328,185.66602 c 0.79167,1.07291 1.58333,2.14583 2.375,3.21875 0.3812,-0.38104 -0.58786,-0.96597 -0.75661,-1.43004 -0.47501,-0.64377 -0.95002,-1.28753 -1.42503,-1.93129 -0.0645,0.0475 -0.12891,0.0951 -0.19336,0.14258 z m -116.92773,87.05664 c 0.78906,1.07421 1.57812,2.14843 2.36718,3.22265 0.44796,-0.37824 -0.55754,-0.97894 -0.72649,-1.45161 -0.47333,-0.64438 -0.94666,-1.28877 -1.41999,-1.93315 -0.0736,0.054 -0.14714,0.10807 -0.2207,0.16211 z" />
    <path
       id="path1"
       style="baseline-shift:baseline;display:inline;overflow:visible;opacity:1;vector-effect:none;stroke:#ffffff;stroke-linecap:round;stroke-linejoin:round;stroke-miterlimit:1.7;stroke-opacity:1;enable-background:accumulate;stop-color:#000000;stop-opacity:1"
       d="m 335.76367,180.91211 c -2.53644,0.19325 -4.36198,2.19035 -6.30315,3.60426 -13.64545,10.07523 -27.2145,20.23737 -40.83179,30.3503 -25.56063,19.02585 -51.13178,38.03723 -76.64425,57.12625 -2.42854,2.2608 -1.62633,6.97895 1.5599,8.12276 2.02967,0.8134 4.45519,0.19278 5.96164,-1.35896 39.25586,-29.19123 78.50716,-58.38862 117.71576,-87.64322 1.426,-1.0317 3.13106,-2.08315 3.5126,-3.94162 0.68817,-2.55353 -0.94601,-5.59499 -3.61915,-6.10352 -0.4427,-0.10548 -0.89532,-0.17338 -1.35156,-0.15625 z" />
    <rect
       style="fill:#ffffff;fill-opacity:1;stroke:#000000;stroke-width:6.54135;stroke-linecap:round;stroke-linejoin:round;stroke-miterlimit:1.7"
       id="rect1"
       width="341.19678"
       height="169.32526"
       x="44.910606"
       y="275.52792"
       ry="7.6398153" />
    <rect
       style="fill:#ffffff;fill-opacity:1;stroke:#000000;stroke-width:5.12855;stroke-linecap:round;stroke-linejoin:round;stroke-miterlimit:1.7"
       id="rect2"
       width="238.55841"
       height="113.78937"
       x="216.64326"
       y="72.10154"
       ry="5.9897623" />
    <text
       xml:space="preserve"
       id="text4"
       style="font-weight:bold;font-size:100px;font-family:'Days One';-inkscape-font-specification:'Days One Bold';text-align:start;writing-mode:lr-tb;direction:ltr;white-space:pre;shape-inside:url(#rect4);display:inline;fill:#ffffff;fill-opacity:1;stroke:#000000;stroke-width:4.70929;stroke-linecap:round;stroke-linejoin:round;stroke-miterlimit:1.7"
       transform="matrix(2.1465123,0,0,2.1465123,-53.642784,114.15463)"><tspan
         x="46.744141"
         y="144.79703"
         id="tspan2"><tspan
           style="font-weight:normal;font-family:Dyuthi;-inkscape-font-specification:Dyuthi;fill:#000000;stroke:none"
           id="tspan1">Next</tspan></tspan></text>
    <text
       xml:space="preserve"
       id="text2"
       style="font-weight:bold;font-size:100px;font-family:'Days One';-inkscape-font-specification:'Days One Bold';text-align:start;writing-mode:lr-tb;direction:ltr;white-space:pre;shape-inside:url(#rect3);display:inline;fill:#ffffff;fill-opacity:1;stroke:#000000;stroke-width:4.70929;stroke-linecap:round;stroke-linejoin:round;stroke-miterlimit:1.7"
       transform="matrix(1.9256695,0,0,1.9256695,13.954949,-91.531919)"><tspan
         x="46.744141"
         y="144.79703"
         id="tspan4"><tspan
           style="font-weight:500;font-family:'CMU Typewriter Text';-inkscape-font-specification:'CMU Typewriter Text Medium';fill:#000000;stroke:none"
           id="tspan3">Mod</tspan></tspan></text>
  </g>
</svg>
